<svg preserveAspectRatio="xMidYMid meet" data-bbox="127.783 100.39 594.593 1217.803" xmlns="http://www.w3.org/2000/svg" viewBox="127.783 100.39 594.593 1217.803" role="presentation" aria-hidden="true">
    <g>
        <path fill="white" d="M491.938 100.39v1217.622l230.438-75.022V303.108L491.938 100.39zm209.054 977.064l-191.694 22.268v-71.726l191.694-8.127v57.585zm0-86.377l-191.694 1.057v-41.528l191.694 7.131v33.34zm0-57.584l-191.694-13.085v-35.863L700.992 904.7v28.793zm0-57.585l-191.694-27.226v-35.863l191.694 34.297v28.792zm0-59.041l-191.694-41.725v-34.049l191.694 48.438v27.336zm0-56.127l-191.694-55.508v-35.864l191.694 62.579v28.793zm0-57.585l-191.694-69.649v-35.862l191.694 76.719v28.792zm0-57.583l-191.694-83.79v-35.864l191.694 90.86v28.794zm0-57.586l-191.694-97.931v-35.863l191.694 105.001v28.793zm0-57.583L509.298 418.332v-35.704l191.694 119.111v28.664zm0-55.593L509.298 349.087v-38.346l191.694 133.283v30.786zm0-59.577L509.298 274.879v-35.864L700.992 386.44v28.793zm0-57.584L509.298 203.154v-35.862l191.694 161.565v28.792z"></path>
        <path fill="white" d="M127.783 452.793v802.578l357.298 62.822V100.39L127.783 263.959v188.834zM424.03 172.11l32.666-14.457v36.283l-32.666 13.825V172.11zm0 71.303l32.666-13.192v36.285l-32.666 12.559v-35.652zm0 71.304l32.666-11.926v36.284l-32.666 11.294v-35.652zm0 71.304l32.666-10.661v36.284l-32.666 10.028v-35.651zm0 71.303l32.666-9.396v36.284l-32.666 8.763v-35.651zm0 71.304l32.666-8.13v36.284l-32.666 7.498v-35.652zm0 71.304l32.666-6.865v36.285l-32.666 6.232v-35.652zm0 67.341l32.666-5.67v40.316l-32.666 4.967v-39.613zm0 74.568l32.666-4.348v36.996l-32.666 3.701v-36.349zm0 72.002l32.666-3.069v36.284l-32.666 2.437v-35.652zm0 71.303l32.666-1.804v36.284l-32.666 1.172v-35.652zm0 71.304l32.666-.539v32.341l-32.666-.025V956.45zm0 71.304l32.666.727v72.569l-32.666-1.993v-71.303zm-62.031-828.19l30.484-13.492v35.041l-30.484 12.901v-34.45zm0 68.9l30.484-12.311v35.041l-30.484 11.72v-34.45zm0 68.901l30.484-11.13v35.04l-30.484 10.54v-34.45zm0 68.901l30.484-9.949v35.041l-30.484 9.358v-34.45zm0 68.901l30.484-8.768v35.041l-30.484 8.178v-34.451zm0 68.9l30.484-7.587v35.04l-30.484 6.997v-34.45zm0 68.901l30.484-6.406v35.041l-30.484 5.816v-34.451zm0 65.073l30.484-5.291v38.935l-30.484 4.635v-38.279zm0 72.054l30.484-4.056v35.727l-30.484 3.454v-35.125zm0 69.576l30.484-2.865v35.041l-30.484 2.273v-34.449zm0 68.9l30.484-1.684v35.042l-30.484 1.092v-34.45zm0 68.901l30.484-.502v31.232l-30.484-.024v-30.706zm0 68.901l30.484.678v70.082l-30.484-1.859v-68.901zm-55.567-802.216l26.092-11.548v33.879l-26.092 11.042v-33.373zm0 66.747l26.092-10.537v33.88l-26.092 10.032v-33.375zm0 66.749l26.092-9.526v33.879l-26.092 9.021v-33.374zm0 66.748l26.092-8.516v33.879l-26.092 8.01v-33.373zm0 66.748l26.092-7.505v33.879l-26.092 7v-33.374zm0 66.749l26.092-6.494v33.879l-26.092 5.989v-33.374zm0 66.748l26.092-5.483v33.879l-26.092 4.978v-33.374zm0 63.04l26.092-4.529v37.644l-26.092 3.968v-37.083zm0 69.803l26.092-3.472v34.542l-26.092 2.957v-34.027zm0 67.402l26.092-2.451v33.88l-26.092 1.945v-33.374zm0 66.748l26.092-1.44v33.88l-26.092.936v-33.376zm0 66.749l26.092-.43v30.196l-26.092-.021v-29.745zm0 66.748l26.092.581v67.759l-26.092-1.592v-66.748zm-56.746-775.865l26.728-11.829v32.792l-26.728 11.312v-32.275zm0 64.55l26.728-10.794v32.793l-26.728 10.276v-32.275zm0 64.55l26.728-9.759v32.792l-26.728 9.241v-32.274zm0 64.55l26.728-8.723v32.792l-26.728 8.206v-32.275zm0 64.55l26.728-7.688v32.792l-26.728 7.17v-32.274zm0 64.55l26.728-6.652v32.792l-26.728 6.135v-32.275zm0 64.551l26.728-5.617v32.792l-26.728 5.1v-32.275zm0 60.963l26.728-4.639v36.437l-26.728 4.064v-35.862zm0 67.505l26.728-3.557v33.435l-26.728 3.029V765.04zm0 65.182l26.728-2.511v32.793l-26.728 1.992v-32.274zm0 64.549l26.728-1.476v32.793l-26.728.959v-32.276zm0 64.551l26.728-.44v29.229l-26.728-.021v-28.768zm0 64.551l26.728.595v65.585l-26.728-1.631v-64.549zm-51-752.03l25.104-11.11v31.772l-25.104 10.625v-31.287zm0 62.574l25.104-10.138v31.774l-25.104 9.652v-31.288zm0 62.575l25.104-9.166v31.773l-25.104 8.68v-31.287zm0 62.574l25.104-8.193v31.773l-25.104 7.707v-31.287zm0 62.575l25.104-7.221v31.773l-25.104 6.735v-31.287zm0 62.574l25.104-6.248v31.773l-25.104 5.762v-31.287zm0 62.575l25.104-5.276v31.773l-25.104 4.79V647.29zm0 59.098l25.104-4.357v35.304l-25.104 3.817v-34.764zm0 65.438l25.104-3.341v32.396l-25.104 2.845v-31.9zm0 63.187l25.104-2.357v31.772l-25.104 1.873v-31.288zm0 62.575l25.104-1.386v31.773l-25.104.899v-31.286zm0 62.574l25.104-.412v28.319l-25.104-.021v-27.886zm0 62.575l25.104.559v63.547l-25.104-1.531v-62.575zm-47.972-729.662l23.623-10.455v30.815l-23.623 9.998v-30.358zm0 60.715l23.623-9.54v30.816l-23.623 9.082V353.79zm0 60.717l23.623-8.625v30.815l-23.623 8.167v-30.357zm0 60.716l23.623-7.71v30.815l-23.623 7.252v-30.357zm0 60.716l23.623-6.795v30.815l-23.623 6.337v-30.357zm0 60.717l23.623-5.88v30.815l-23.623 5.422v-30.357zm0 60.716l23.623-4.965v30.815l-23.623 4.507v-30.357zm0 57.343l23.623-4.101v34.24l-23.623 3.592v-33.731zm0 63.495l23.623-3.144v31.419l-23.623 2.677V778.21zm0 61.311l23.623-2.22v30.816l-23.623 1.762v-30.358zm0 60.715l23.623-1.305v30.816l-23.623.847v-30.358zm0 60.717l23.623-.39v27.467l-23.623-.019v-27.058zm0 60.716l23.623.526v61.631l-23.623-1.44v-60.717z"></path>
    </g>
</svg>