<svg preserveAspectRatio="xMidYMid meet" data-bbox="0 0.035 133.9 159.965" xmlns="http://www.w3.org/2000/svg" viewBox="0 0.035 133.9 159.965" role="presentation" aria-hidden="true">
    <g>
        <path fill="white" d="M69 160c-.6 0-1.2-.1-1.7-.3-.7-.3-17.5-6.3-34.1-26C5.7 101.5 0 58 0 27.2 0 24.4 2.3 22 5.2 22 17 22 40.4 19.3 64.1 1.1c2-1.5 4.8-1.4 6.6.2 19.2 17 48.4 20.7 58 20.7 2.9 0 5.2 2.3 5.2 5.2 0 53.3-16.8 86.3-30.9 104.6-15.5 20.1-31.2 27.4-31.8 27.7-.7.3-1.5.5-2.2.5zM10.5 32.3c.8 39.1 11.2 71.5 30.2 94.2 11.7 13.9 23.5 20.4 28.1 22.5 4.4-2.5 15.4-9.7 26.4-24.1 12.5-16.4 27.3-45.7 28.3-92.7-13-1.1-37.8-5.9-56.4-20.4-21.9 15.7-43.2 19.7-56.6 20.5z"></path>
    </g>
</svg>