<svg preserveAspectRatio="xMidYMid meet" data-bbox="88.21 544.652 673.284 329.235" xmlns="http://www.w3.org/2000/svg" viewBox="88.21 544.652 673.284 329.235" role="presentation" aria-hidden="true">
    <g>
        <path fill="white" d="M734.484 730.418L593.11 649.716l-92.981 53.076-14.795 8.447-42.804-23.684-149.65-85.427-171.895 98.125v137.272H96.308v36.362h394.414v-.221h265.425v-29.965h-21.662V730.418zm-451.263 52.541h-78.379v-77.625h78.379v77.625zm96.919 0h-78.378v-77.625h78.378v77.625zm264.725 58.516h-92.086v-84.457h92.086v84.457z"></path>
        <path fill="white" d="M718.836 674.87l-44.851-25.6-82.193-46.92-99.721 56.922-46.626-26.619v-67.517h-54.424v36.454l-99.742-56.938L88.21 660.571v30.033h18.702L292.88 584.442l165.14 94.27-.04.023 29.382 16.769 8.593-4.9h1.255v-.718l95.9-54.744 153.253 87.483h15.131v-23.402l-42.658-24.353z"></path>
    </g>
</svg>
