<svg preserveAspectRatio="xMidYMid meet" data-bbox="2.5 2.632 195.028 195.068" xmlns="http://www.w3.org/2000/svg" viewBox="2.5 2.632 195.028 195.068" role="presentation" aria-hidden="true">
    <g>
        <path fill="white" d="M193.8 6.4c-4.3-4.3-11.6-5.7-17.2 0l-13 13c-.5-.3-1.1-.5-1.8-.5H6.6c-2.2 0-4.1 1.8-4.1 4.1v170.6c0 2.2 1.8 4.1 4.1 4.1h154.3c2.2 0 4.1-1.8 4.1-4.1V55.9c0-1-.4-1.9-1-2.6l29.8-29.8c5.6-5.6 4.3-12.9 0-17.1zm-36.9 183.1H10.7V27h145.2L99 83.9c-.3.3-.6.7-.8 1.1l-11.5 23c-.8 1.6-.5 3.5.8 4.7.8.8 1.8 1.2 2.9 1.2.6 0 1.2-.1 1.8-.4l23-11.5c.4-.2.7-.5 1.1-.8l40.6-40.6v128.9zm31.2-171.7L111 94.9l-11.5 5.7 5.7-11.5L182.3 12c2.7-2.7 5.2-.4 5.7 0 .5.6 2.8 3.1.1 5.8z"></path>
        <path fill="white" d="M131.3 159H38.9c-2.2 0-4.1 1.8-4.1 4.1 0 2.2 1.8 4.1 4.1 4.1h92.4c2.2 0 4.1-1.8 4.1-4.1s-1.8-4.1-4.1-4.1z"></path>
        <path fill="white" d="M34.9 133.6c0 2.2 1.8 4.1 4.1 4.1h92.4c2.2 0 4.1-1.8 4.1-4.1s-1.8-4.1-4.1-4.1H38.9c-2.2.1-4 1.9-4 4.1z"></path>
    </g>
</svg>