<svg xmlns="http://www.w3.org/2000/svg" xmlns:xlink="http://www.w3.org/1999/xlink" version="1.1" id="Layer_1" x="0px" y="0px" viewBox="0 0 1080 1080" style="enable-background:new 0 0 1080 1080;" xml:space="preserve" fill="white" class=" ls-is-cached lazyloaded replaced-svg">
<g>
	<g>
		<path d="M923,1028.5H157c-8,0-14.5-6.5-14.5-14.5V65.9c0-8,6.5-14.5,14.5-14.5h766c8,0,14.5,6.5,14.5,14.5v948.1    C937.5,1022.1,931,1028.5,923,1028.5z M171.4,999.6h737.1V80.4H171.4V999.6z"></path>
	</g>
	<g>
		<path d="M670.1,242.3H415.7c-55,0-99.7-44.7-99.7-99.7V65.9h28.9v76.6c0,39.1,31.8,70.8,70.8,70.8h254.4    c39.1,0,70.8-31.8,70.8-70.8V65.9h28.9v76.6C769.8,197.5,725.1,242.3,670.1,242.3z"></path>
	</g>
	<g>
		<path d="M249.5,482.2c-8,0-14.5-6.5-14.5-14.5V142.5c0-8,6.5-14.5,14.5-14.5h80.9c8,0,14.5,6.5,14.5,14.5c0,8-6.5,14.5-14.5,14.5    h-66.5v310.7C263.9,475.7,257.5,482.2,249.5,482.2z"></path>
	</g>
	<g>
		<path d="M836.3,938.9H249.5c-8,0-14.5-6.5-14.5-14.5V612.3c0-8,6.5-14.5,14.5-14.5s14.5,6.5,14.5,14.5V910h557.9V161.3h-66.5    c-8,0-14.5-6.5-14.5-14.5c0-8,6.5-14.5,14.5-14.5h80.9c8,0,14.5,6.5,14.5,14.5v777.6C850.7,932.4,844.3,938.9,836.3,938.9z"></path>
	</g>
	<g>
		<circle cx="249.5" cy="542.2" r="17.3"></circle>
	</g>
	<g>
		<path d="M733.2,352.3H519.3c-8,0-14.5-6.5-14.5-14.5c0-8,6.5-14.5,14.5-14.5h213.9c8,0,14.5,6.5,14.5,14.5    C747.6,345.9,741.2,352.3,733.2,352.3z"></path>
	</g>
	<g>
		<path d="M733.2,441H519.3c-8,0-14.5-6.5-14.5-14.5c0-8,6.5-14.5,14.5-14.5h213.9c8,0,14.5,6.5,14.5,14.5    C747.6,434.5,741.2,441,733.2,441z"></path>
	</g>
	<g>
		<path d="M733.2,529.6H519.3c-8,0-14.5-6.5-14.5-14.5s6.5-14.5,14.5-14.5h213.9c8,0,14.5,6.5,14.5,14.5S741.2,529.6,733.2,529.6z"></path>
	</g>
	<g>
		<path d="M733.2,618.3H519.3c-8,0-14.5-6.5-14.5-14.5c0-8,6.5-14.5,14.5-14.5h213.9c8,0,14.5,6.5,14.5,14.5    C747.6,611.8,741.2,618.3,733.2,618.3z"></path>
	</g>
	<g>
		<path d="M733.2,706.9H519.3c-8,0-14.5-6.5-14.5-14.5c0-8,6.5-14.5,14.5-14.5h213.9c8,0,14.5,6.5,14.5,14.5    C747.6,700.5,741.2,706.9,733.2,706.9z"></path>
	</g>
	<g>
		<path d="M733.2,795.6H519.3c-8,0-14.5-6.5-14.5-14.5s6.5-14.5,14.5-14.5h213.9c8,0,14.5,6.5,14.5,14.5S741.2,795.6,733.2,795.6z"></path>
	</g>
	<g>
		<path d="M396.9,422.4c-3.7,0-7.4-1.4-10.2-4.2l-45.3-45.3c-5.6-5.6-5.6-14.8,0-20.4c5.6-5.6,14.8-5.6,20.4,0l35.1,35.1l68.8-68.8    c5.6-5.6,14.8-5.6,20.4,0c5.6,5.6,5.6,14.8,0,20.4l-79,79C404.3,421,400.6,422.4,396.9,422.4z"></path>
	</g>
	<g>
		<path d="M396.9,602.6c-3.7,0-7.4-1.4-10.2-4.2l-45.3-45.3c-5.6-5.6-5.6-14.8,0-20.4c5.6-5.6,14.8-5.6,20.4,0l35.1,35.1l68.8-68.8    c5.6-5.6,14.8-5.6,20.4,0c5.6,5.6,5.6,14.8,0,20.4l-79,79C404.3,601.2,400.6,602.6,396.9,602.6z"></path>
	</g>
	<g>
		<path d="M396.9,782.8c-3.7,0-7.4-1.4-10.2-4.2l-45.3-45.3c-5.6-5.6-5.6-14.8,0-20.4c5.6-5.6,14.8-5.6,20.4,0l35.1,35.1l68.8-68.8    c5.6-5.6,14.8-5.6,20.4,0c5.6,5.6,5.6,14.8,0,20.4l-79,79C404.3,781.4,400.6,782.8,396.9,782.8z"></path>
	</g>
</g>
</svg>